<svg width="48" height="48" viewBox="0 0 48 48" xmlns="http://www.w3.org/2000/svg">
  <path fill="#F05032" d="M45.1,20.6L27.4,2.9c-1.6-1.6-4.1-1.6-5.7,0L17,7.7l5,5c1.2-0.6,2.7-0.4,3.7,0.6c1,1,1.2,2.5,0.6,3.7 l4.7,4.7c1.2-0.6,2.7-0.4,3.7,0.6c1.4,1.4,1.4,3.6,0,5c-1.4,1.4-3.6,1.4-5,0c-1-1-1.2-2.5-0.6-3.7l-4.3-4.3v11.6 c0.4,0.2,0.7,0.4,1,0.7c1.4,1.4,1.4,3.6,0,5c-1.4,1.4-3.6,1.4-5,0c-1.4-1.4-1.4-3.6,0-5c0.3-0.3,0.6-0.5,1-0.7v-11.6 c-0.4-0.2-0.7-0.4-1-0.7c-1.2-1.2-1.4-3-0.7-4.4L10,8.6L2.9,15.7c-1.6,1.6-1.6,4.1,0,5.7l17.7,17.7c1.6,1.6,4.1,1.6,5.7,0 l18.8-18.8C46.6,24.7,46.6,22.2,45.1,20.6z"/>
</svg>
